<svg width="14" height="14" viewBox="0 0 14 14" fill="none" xmlns="http://www.w3.org/2000/svg">
  <circle cx="7" cy="7" r="7" fill="#2563EB"/>
  <path d="M4.92748 8.85313L3.02766 6.95331C2.92529 6.85094 2.78644 6.79343 2.64167 6.79343C2.4969 6.79343 2.35805 6.85094 2.25568 6.95331C2.15331 7.05568 2.0958 7.19452 2.0958 7.3393C2.0958 7.41098 2.10992 7.48196 2.13735 7.54819C2.16479 7.61442 2.20499 7.67459 2.25568 7.72528L4.54423 10.0138C4.75776 10.2274 5.10268 10.2274 5.31621 10.0138L11.1088 4.22128C11.2111 4.11891 11.2686 3.98007 11.2686 3.8353C11.2686 3.69052 11.2111 3.55168 11.1088 3.44931C11.0064 3.34694 10.8675 3.28943 10.7228 3.28943C10.578 3.28943 10.4391 3.34694 10.3368 3.44931L4.92748 8.85313Z" fill="white"/>
</svg>
