<svg width="98" height="98" viewBox="0 0 98 98" fill="none" xmlns="http://www.w3.org/2000/svg">
<path d="M71.2106 0L82.5275 11.3215L67.3274 26.5216C62.1605 31.693 55.3192 34.3102 48.5451 34.3012C41.7756 34.3102 34.9297 31.693 29.7627 26.5216L14.5626 11.3215L25.8797 0L41.0797 15.2001C43.1626 17.274 45.8158 18.2841 48.5406 18.2931C51.2655 18.2841 53.9185 17.2785 56.0014 15.2001L71.2016 0H71.2106ZM97.0946 71.206L81.8946 56.0059C79.8207 53.923 78.815 51.27 78.8061 48.5451C78.815 45.8157 79.8207 43.1627 81.8946 41.0842L97.0946 25.8841L85.7776 14.5626L70.5775 29.7627C65.4061 34.9297 62.789 41.7755 62.798 48.5451C62.789 55.3146 65.4061 62.1605 70.5775 67.323L85.7776 82.523L97.0991 71.206H97.0946ZM25.8842 97.0901L41.0842 81.8901C43.1671 79.8116 45.8158 78.8061 48.5451 78.7971C51.27 78.8061 53.923 79.8116 56.0059 81.8901L71.2061 97.0901L82.5275 85.7686L67.3274 70.5686C62.1605 65.3971 55.3192 62.78 48.5451 62.789C41.7756 62.78 34.9297 65.3971 29.7627 70.5686L14.5626 85.7686L25.8842 97.0901ZM0 25.8841L15.2001 41.0842C17.2741 43.1671 18.2796 45.8202 18.2886 48.5451C18.2796 51.27 17.2741 53.923 15.2001 56.0059L0 71.206L11.3215 82.5275L26.5216 67.3275C31.693 62.1605 34.3102 55.3191 34.3012 48.5496C34.3102 41.78 31.693 34.9341 26.5216 29.7672L11.3215 14.5671L0 25.8886V25.8841Z" fill="#00B4FD"/>
</svg>
